<?xml version="1.0" encoding="UTF-8"?>
<!DOCTYPE svg PUBLIC "-//W3C//DTD SVG 1.1//EN" "http://www.w3.org/Graphics/SVG/1.1/DTD/svg11.dtd">
<svg xmlns="http://www.w3.org/2000/svg" version="1.1" width="1045px" height="1045px" style="shape-rendering:geometricPrecision; text-rendering:geometricPrecision; image-rendering:optimizeQuality; fill-rule:evenodd; clip-rule:evenodd" xmlns:xlink="http://www.w3.org/1999/xlink">
<g><path style="opacity:1" fill="#fefefe" d="M -0.5,-0.5 C 347.833,-0.5 696.167,-0.5 1044.5,-0.5C 1044.5,347.833 1044.5,696.167 1044.5,1044.5C 696.167,1044.5 347.833,1044.5 -0.5,1044.5C -0.5,696.167 -0.5,347.833 -0.5,-0.5 Z"/></g>
<g><path style="opacity:1" fill="#9a9a9a" d="M 503.5,299.5 C 507.646,298.353 511.98,298.186 516.5,299C 517.056,299.383 517.389,299.883 517.5,300.5C 512.897,299.617 508.23,299.283 503.5,299.5 Z"/></g>
<g><path style="opacity:1" fill="#0a0909" d="M 503.5,299.5 C 508.23,299.283 512.897,299.617 517.5,300.5C 530.011,306.932 541.344,315.099 551.5,325C 556.068,327.452 560.735,329.618 565.5,331.5C 567.562,332.776 569.896,333.61 572.5,334C 581.676,334.824 590.676,334.657 599.5,333.5C 609.55,334.933 618.883,333.099 627.5,328C 632.044,326.264 636.71,324.93 641.5,324C 652.833,323.333 664.167,323.333 675.5,324C 678.167,325.333 680.833,326.667 683.5,328C 698.572,339.652 713.072,352.152 727,365.5C 730.414,369.994 733.581,374.66 736.5,379.5C 789.498,384.705 831.665,408.705 863,451.5C 869.638,462.778 876.638,473.778 884,484.5C 890.755,497.273 896.755,510.273 902,523.5C 902.993,527.442 903.66,531.442 904,535.5C 904.667,548.833 904.667,562.167 904,575.5C 902.97,577.588 902.137,579.755 901.5,582C 894.291,592.251 887.457,602.751 881,613.5C 878.594,620.65 877.927,627.983 879,635.5C 892.253,644.209 905.42,653.043 918.5,662C 922.333,665.833 926.167,669.667 930,673.5C 932.653,684.232 928.486,691.065 917.5,694C 898.483,695.949 879.983,693.782 862,687.5C 858.863,688.945 858.697,690.778 861.5,693C 877.178,703.01 891.345,714.843 904,728.5C 906.171,734.357 904.671,739.19 899.5,743C 894.181,745.997 888.515,747.831 882.5,748.5C 874.149,748.518 865.816,748.185 857.5,747.5C 844.129,744.658 830.796,741.491 817.5,738C 814.773,737.182 812.106,737.348 809.5,738.5C 804.947,748.371 801.78,758.704 800,769.5C 796.134,784.43 787.967,796.263 775.5,805C 766.025,807.895 756.358,809.895 746.5,811C 729.5,811.667 712.5,811.667 695.5,811C 678.249,806.42 662.249,799.087 647.5,789C 633.299,781.232 618.632,774.565 603.5,769C 588.197,767.496 572.863,767.163 557.5,768C 550.141,769.688 542.807,771.354 535.5,773C 524.833,773.667 514.167,773.667 503.5,773C 497.263,770.548 491.263,767.548 485.5,764C 477.167,757 469.5,749.333 462.5,741C 448.536,735.05 434.036,730.883 419,728.5C 413.421,732.073 408.421,736.406 404,741.5C 388.996,761.846 372.496,781.013 354.5,799C 345.701,803.619 337.034,803.285 328.5,798C 326.657,795.648 325.657,792.981 325.5,790C 328.447,767.281 335.781,746.114 347.5,726.5C 342.446,726.51 337.446,727.676 332.5,730C 320.628,732.821 309.628,730.821 299.5,724C 295.545,718.377 291.212,713.043 286.5,708C 282.93,706.201 279.263,704.701 275.5,703.5C 270.42,700.153 264.753,698.819 258.5,699.5C 239.63,699.155 222.797,693.155 208,681.5C 204.045,676.422 200.211,671.256 196.5,666C 182.529,667.053 168.529,668.22 154.5,669.5C 145.357,669.971 136.357,669.304 127.5,667.5C 107.798,659.625 105.465,648.458 120.5,634C 135.495,623.668 151.495,615.168 168.5,608.5C 170.982,590.369 178.649,574.869 191.5,562C 196.023,560.486 198.69,557.486 199.5,553C 198.376,546.174 197.376,539.341 196.5,532.5C 194.784,532.629 193.117,532.962 191.5,533.5C 185.545,534.363 179.545,534.697 173.5,534.5C 129.708,524.036 105.374,496.369 100.5,451.5C 98.9216,442.915 98.2549,434.249 98.5,425.5C 105.054,396.876 119.387,373.043 141.5,354C 153.568,345.986 166.901,342.986 181.5,345C 187.727,347.465 194.06,349.631 200.5,351.5C 204.204,348.476 208.204,345.81 212.5,343.5C 214.852,340.928 215.019,338.262 213,335.5C 210.616,312.949 218.783,295.449 237.5,283C 239.134,282.506 240.801,282.34 242.5,282.5C 241.66,272.675 245.326,264.842 253.5,259C 272.987,245.42 294.32,241.087 317.5,246C 321.783,248.615 325.783,251.615 329.5,255C 332.833,255.667 336.167,255.667 339.5,255C 345.935,249.017 353.601,245.851 362.5,245.5C 382.525,242.466 397.859,249.299 408.5,266C 410.833,267.667 413.167,269.333 415.5,271C 427.44,273.304 438.773,277.304 449.5,283C 451.388,285.19 453.555,287.023 456,288.5C 459.597,294.706 463.431,300.706 467.5,306.5C 471.786,303.524 476.453,301.357 481.5,300C 488.826,299.5 496.159,299.334 503.5,299.5 Z"/></g>
<g><path style="opacity:1" fill="#bbbbbb" d="M 497.5,412.5 C 503.653,411.347 509.986,411.18 516.5,412C 517.737,412.232 518.737,412.732 519.5,413.5C 512.201,412.65 504.868,412.317 497.5,412.5 Z"/></g>
<g><path style="opacity:1" fill="#7f6552" d="M 165.5,403.5 C 146.922,415.659 138.088,432.993 139,455.5C 142.691,467.523 149.525,477.357 159.5,485C 166.069,489.151 173.069,492.484 180.5,495C 185.823,495.499 191.156,495.666 196.5,495.5C 196.5,496.5 196.5,497.5 196.5,498.5C 196.087,505.261 195.087,511.928 193.5,518.5C 159.64,521.48 135.473,507.48 121,476.5C 117.258,464.413 114.258,452.079 112,439.5C 111.333,434.833 111.333,430.167 112,425.5C 117.108,407.619 125.108,391.285 136,376.5C 139.056,373.274 142.223,370.274 145.5,367.5C 150.509,367.11 155.176,365.777 159.5,363.5C 159.5,362.167 159.5,360.833 159.5,359.5C 166.513,359.165 173.513,358.998 180.5,359C 181.878,360.713 183.545,362.047 185.5,363C 188.625,363.544 191.625,364.377 194.5,365.5C 194.334,372.841 194.5,380.174 195,387.5C 196.261,391.877 198.095,395.877 200.5,399.5C 201.5,399.5 202.5,399.5 203.5,399.5C 203.297,401.39 203.963,402.89 205.5,404C 210.503,404.475 213.169,407.141 213.5,412C 212.58,416.099 211.08,419.933 209,423.5C 207.027,412.884 201.194,405.217 191.5,400.5C 183.193,399.502 174.86,399.169 166.5,399.5C 166.567,400.959 166.234,402.292 165.5,403.5 Z"/></g>
<g><path style="opacity:1" fill="#cbcbcb" d="M 565.5,331.5 C 575.889,333.155 587.223,333.822 599.5,333.5C 590.676,334.657 581.676,334.824 572.5,334C 569.896,333.61 567.562,332.776 565.5,331.5 Z"/></g>
<g><path style="opacity:1" fill="#fefefe" d="M 786.5,447.5 C 787.496,447.586 788.329,447.252 789,446.5C 789.796,443.961 789.629,441.628 788.5,439.5C 785.408,436.621 781.741,434.787 777.5,434C 774.333,431.5 771.167,429 768,426.5C 758.87,416.205 750.703,405.205 743.5,393.5C 780.28,397.807 811.446,413.473 837,440.5C 856.915,464.637 873.582,490.97 887,519.5C 887.875,522.883 888.875,526.216 890,529.5C 891.344,543.812 891.677,558.146 891,572.5C 886.246,581.756 880.58,590.422 874,598.5C 871.628,601.91 869.795,605.577 868.5,609.5C 867.113,611.877 866.279,614.543 866,617.5C 865.5,626.494 865.334,635.494 865.5,644.5C 865.731,660.334 859.731,673.167 847.5,683C 826.731,694.803 810.231,710.969 798,731.5C 796.861,734.583 795.528,737.583 794,740.5C 790.866,755.403 786.032,769.736 779.5,783.5C 774.525,790.482 767.858,794.649 759.5,796C 736.48,797.911 713.48,797.911 690.5,796C 677.77,790.909 665.77,784.576 654.5,777C 641.408,770.955 628.408,764.621 615.5,758C 610.833,757 606.167,756 601.5,755C 585.5,754.333 569.5,754.333 553.5,755C 537.791,759.259 521.791,760.593 505.5,759C 493.751,754.793 484.751,747.293 478.5,736.5C 475.978,734.144 473.312,731.977 470.5,730C 463.457,726.645 456.123,724.145 448.5,722.5C 446.485,721.076 444.152,720.41 441.5,720.5C 424.952,717.596 408.619,713.762 392.5,709C 373.425,699.907 361.758,684.907 357.5,664C 357.833,662.5 358.167,661 358.5,659.5C 375.359,651.094 391.025,640.927 405.5,629C 418.365,617.135 430.532,604.635 442,591.5C 445.67,586.829 448.837,581.829 451.5,576.5C 465.034,590.268 481.367,598.768 500.5,602C 520.824,607.219 539.157,603.552 555.5,591C 563.554,583.432 571.054,575.265 578,566.5C 581.755,561.997 584.755,556.997 587,551.5C 598.186,512.946 593.186,476.613 572,442.5C 558.197,426.181 540.697,416.514 519.5,413.5C 518.737,412.732 517.737,412.232 516.5,412C 509.986,411.18 503.653,411.347 497.5,412.5C 493.677,412.833 492.177,411.166 493,407.5C 501.51,404.99 507.51,399.657 511,391.5C 514.106,381.375 515.106,371.042 514,360.5C 510.813,354.139 506.313,348.806 500.5,344.5C 491.791,339.947 484.124,334.114 477.5,327C 475.564,326.187 473.564,325.687 471.5,325.5C 471.336,322.813 471.503,320.146 472,317.5C 474.564,315.273 477.397,313.439 480.5,312C 490.832,311.185 501.165,310.852 511.5,311C 523.723,316.942 534.723,324.609 544.5,334C 552.89,339.362 561.89,343.362 571.5,346C 586.184,346.618 600.851,346.285 615.5,345C 625.8,340.518 636.467,337.184 647.5,335C 656.576,334.087 665.576,334.42 674.5,336C 690.144,347.665 704.81,360.498 718.5,374.5C 726.749,388.666 735.249,402.666 744,416.5C 750.823,424.988 757.99,433.155 765.5,441C 769.888,443.861 774.554,446.194 779.5,448C 781.929,448.703 784.262,448.537 786.5,447.5 Z"/></g>
<g><path style="opacity:1" fill="#848484" d="M 241.5,294.5 C 243.952,294.014 246.618,294.014 249.5,294.5C 246.974,295.657 244.307,295.657 241.5,294.5 Z"/></g>
<g><path style="opacity:1" fill="#fdfdfd" d="M 441.5,455.5 C 435.464,455.64 429.464,455.307 423.5,454.5C 421.821,454.108 420.154,453.608 418.5,453C 417.527,450.365 415.86,448.365 413.5,447C 408.763,445.422 404.096,445.422 399.5,447C 378.45,448.209 360.45,441.543 345.5,427C 339.177,423.869 332.511,422.535 325.5,423C 315.516,429.014 306.016,428.18 297,420.5C 294.217,416.049 291.05,411.883 287.5,408C 277.569,403.968 268.235,404.968 259.5,411C 249.883,411.422 242.55,407.422 237.5,399C 231.634,395.617 225.301,393.95 218.5,394C 213.481,391.306 210.314,387.139 209,381.5C 208.289,374.785 208.622,368.118 210,361.5C 211.458,359.04 213.291,356.873 215.5,355C 223.136,352.4 226.47,347.067 225.5,339C 221.071,320.685 226.405,305.851 241.5,294.5C 244.307,295.657 246.974,295.657 249.5,294.5C 249.811,293.522 250.478,292.855 251.5,292.5C 250.072,282.024 253.405,273.524 261.5,267C 277.395,257.58 294.395,254.246 312.5,257C 316.783,259.615 320.783,262.615 324.5,266C 330.865,267.806 337.199,267.806 343.5,266C 348.389,262.444 353.722,259.777 359.5,258C 368.525,258.002 377.525,258.668 386.5,260C 392.5,264.667 397.833,270 402.5,276C 404.833,277.667 407.167,279.333 409.5,281C 417.422,283.544 425.422,285.878 433.5,288C 437.295,289.731 440.962,291.731 444.5,294C 448.06,298.563 451.227,303.396 454,308.5C 456.095,317.137 459.095,325.471 463,333.5C 465.725,337.738 469.558,340.071 474.5,340.5C 483.244,347.288 492.077,353.955 501,360.5C 502.755,363.6 503.589,366.933 503.5,370.5C 502.667,377.834 500.667,384.834 497.5,391.5C 491.736,393.216 486.736,396.216 482.5,400.5C 481.148,403.168 480.481,406.001 480.5,409C 481.025,412.541 481.692,416.041 482.5,419.5C 466.743,427.748 453.909,439.415 444,454.5C 443.329,455.252 442.496,455.586 441.5,455.5 Z"/></g>
<g><path style="opacity:1" fill="#fcebdc" d="M 417.5,466.5 C 423.928,468.335 430.262,470.001 436.5,471.5C 432.252,487.058 429.252,502.891 427.5,519C 428.182,524.577 429.182,530.077 430.5,535.5C 430.649,536.552 430.483,537.552 430,538.5C 422.891,531.56 414.391,527.06 404.5,525C 403.244,524.583 402.577,523.75 402.5,522.5C 406.883,515.769 407.383,508.769 404,501.5C 400.31,498.309 396.477,495.309 392.5,492.5C 379.818,489.925 370.318,494.258 364,505.5C 363.233,509.594 363.566,513.594 365,517.5C 366.996,520.986 369.163,524.319 371.5,527.5C 367.869,527.032 364.535,527.699 361.5,529.5C 359.106,533.604 355.939,536.937 352,539.5C 351.51,540.793 351.343,542.127 351.5,543.5C 350.325,543.281 349.325,543.614 348.5,544.5C 348.043,546.598 347.043,548.264 345.5,549.5C 344.363,550.789 343.03,551.789 341.5,552.5C 331.492,549.55 321.492,546.05 311.5,542C 308.5,539 305.5,536 302.5,533C 300.5,532.333 298.5,532.333 296.5,533C 290.265,538.141 283.265,539.975 275.5,538.5C 275.389,537.883 275.056,537.383 274.5,537C 281.052,525.364 283.219,512.864 281,499.5C 277.581,495.64 274.414,491.64 271.5,487.5C 271.371,485.784 271.038,484.117 270.5,482.5C 273.595,471.588 269.928,464.088 259.5,460C 246.863,457.646 238.53,462.479 234.5,474.5C 231.659,476.524 228.659,478.191 225.5,479.5C 220.737,478.965 217.071,480.632 214.5,484.5C 214.095,483.45 213.429,483.45 212.5,484.5C 211.548,482.955 211.215,481.288 211.5,479.5C 211.68,473.088 212.513,466.754 214,460.5C 218.859,443.064 224.025,425.731 229.5,408.5C 234.798,415.814 241.798,420.648 250.5,423C 254.833,423.667 259.167,423.667 263.5,423C 267.944,418.443 273.277,416.776 279.5,418C 284.167,423 288.833,428 293.5,433C 305.832,440.6 318.332,441.1 331,434.5C 333.185,434.921 335.351,435.421 337.5,436C 354.418,453.089 375.085,461.423 399.5,461C 401.722,460.305 403.889,459.472 406,458.5C 408.885,462.555 412.718,465.222 417.5,466.5 Z"/></g>
<g><path style="opacity:1" fill="#806650" d="M 511.5,447.5 C 510.833,447.5 510.167,447.5 509.5,447.5C 504.636,447.001 500.136,448.001 496,450.5C 495.517,449.552 495.351,448.552 495.5,447.5C 494.448,447.351 493.448,447.517 492.5,448C 490.987,450.846 488.821,453.013 486,454.5C 483.866,452.713 483.033,450.38 483.5,447.5C 485.857,447.663 488.19,447.497 490.5,447C 487.539,443.966 483.872,442.799 479.5,443.5C 479.5,446.833 479.5,450.167 479.5,453.5C 474.013,454.038 471.847,451.705 473,446.5C 476.226,444.131 478.392,441.131 479.5,437.5C 484.414,438.167 487.747,436.334 489.5,432C 497.491,432.062 505.325,431.229 513,429.5C 514.225,429.862 515.391,430.362 516.5,431C 517.987,433.22 519.654,435.22 521.5,437C 519.257,440.632 515.924,442.132 511.5,441.5C 511.5,443.5 511.5,445.5 511.5,447.5 Z"/></g>
<g><path style="opacity:1" fill="#7a6454" d="M 511.5,447.5 C 511.5,445.5 511.5,443.5 511.5,441.5C 515.924,442.132 519.257,440.632 521.5,437C 519.654,435.22 517.987,433.22 516.5,431C 515.391,430.362 514.225,429.862 513,429.5C 505.325,431.229 497.491,432.062 489.5,432C 487.747,436.334 484.414,438.167 479.5,437.5C 488.614,427.544 499.947,423.711 513.5,426C 531.732,427.451 547.065,434.784 559.5,448C 549.29,446.266 538.957,445.1 528.5,444.5C 522.57,444.142 516.903,445.142 511.5,447.5 Z"/></g>
<g><path style="opacity:1" fill="#bfbfbf" d="M 98.5,425.5 C 98.2549,434.249 98.9216,442.915 100.5,451.5C 99.207,450.158 98.3736,448.491 98,446.5C 97.1787,439.321 97.3454,432.321 98.5,425.5 Z"/></g>
<g><path style="opacity:1" fill="#9e9e9e" d="M 788.5,439.5 C 789.629,441.628 789.796,443.961 789,446.5C 788.329,447.252 787.496,447.586 786.5,447.5C 788.226,445.18 788.893,442.513 788.5,439.5 Z"/></g>
<g><path style="opacity:1" fill="#7b6455" d="M 479.5,437.5 C 478.392,441.131 476.226,444.131 473,446.5C 471.847,451.705 474.013,454.038 479.5,453.5C 479.5,450.167 479.5,446.833 479.5,443.5C 483.872,442.799 487.539,443.966 490.5,447C 488.19,447.497 485.857,447.663 483.5,447.5C 483.033,450.38 483.866,452.713 486,454.5C 488.821,453.013 490.987,450.846 492.5,448C 493.448,447.517 494.448,447.351 495.5,447.5C 495.351,448.552 495.517,449.552 496,450.5C 500.136,448.001 504.636,447.001 509.5,447.5C 501.56,451.728 494.393,457.061 488,463.5C 475.109,483.018 473.109,503.684 482,525.5C 486.359,533.024 492.192,539.024 499.5,543.5C 496.974,543.081 494.641,542.914 492.5,543C 492.833,542.667 493.167,542.333 493.5,542C 488.772,538.36 484.605,534.194 481,529.5C 480.667,529.833 480.333,530.167 480,530.5C 479.517,529.552 479.351,528.552 479.5,527.5C 477.833,527.5 476.167,527.5 474.5,527.5C 476.17,522.198 476.504,516.864 475.5,511.5C 474.5,511.5 473.5,511.5 472.5,511.5C 472.963,507.363 473.296,503.363 473.5,499.5C 472.634,497.568 471.967,495.568 471.5,493.5C 473.119,488.942 474.119,484.275 474.5,479.5C 471.833,479.5 469.167,479.5 466.5,479.5C 466.938,482.893 466.105,485.893 464,488.5C 463.502,485.518 463.335,482.518 463.5,479.5C 462.5,479.5 461.5,479.5 460.5,479.5C 459.964,476.335 460.797,473.669 463,471.5C 463.667,467.167 463.667,462.833 463,458.5C 461.745,459.211 460.579,460.044 459.5,461C 459.957,461.414 460.291,461.914 460.5,462.5C 458.955,463.452 457.288,463.785 455.5,463.5C 454.355,468.704 453.689,474.037 453.5,479.5C 454.833,479.5 456.167,479.5 457.5,479.5C 457.5,484.833 457.5,490.167 457.5,495.5C 454.167,495.5 450.833,495.5 447.5,495.5C 447.5,500.833 447.5,506.167 447.5,511.5C 446.5,511.5 445.5,511.5 444.5,511.5C 444.543,522.308 445.543,532.974 447.5,543.5C 446.59,541.981 445.757,540.315 445,538.5C 443.715,532.824 442.548,527.157 441.5,521.5C 443.115,502.375 446.948,483.709 453,465.5C 459.11,456.724 465.944,448.557 473.5,441C 475.405,439.579 477.405,438.412 479.5,437.5 Z"/></g>
<g><path style="opacity:1" fill="#acacac" d="M 423.5,454.5 C 429.464,455.307 435.464,455.64 441.5,455.5C 439.19,456.164 436.69,456.497 434,456.5C 430.195,456.696 426.695,456.03 423.5,454.5 Z"/></g>
<g><path style="opacity:1" fill="#7c6553" d="M 165.5,403.5 C 166.234,402.292 166.567,400.959 166.5,399.5C 174.86,399.169 183.193,399.502 191.5,400.5C 201.194,405.217 207.027,412.884 209,423.5C 211.08,419.933 212.58,416.099 213.5,412C 213.169,407.141 210.503,404.475 205.5,404C 203.963,402.89 203.297,401.39 203.5,399.5C 202.5,399.5 201.5,399.5 200.5,399.5C 198.095,395.877 196.261,391.877 195,387.5C 194.5,380.174 194.334,372.841 194.5,365.5C 191.625,364.377 188.625,363.544 185.5,363C 183.545,362.047 181.878,360.713 180.5,359C 173.513,358.998 166.513,359.165 159.5,359.5C 159.5,360.833 159.5,362.167 159.5,363.5C 155.176,365.777 150.509,367.11 145.5,367.5C 150.48,361.716 156.813,358.216 164.5,357C 169.833,356.333 175.167,356.333 180.5,357C 186.139,358.991 191.805,360.825 197.5,362.5C 194.054,376.402 196.721,388.902 205.5,400C 208.619,402.893 212.286,404.726 216.5,405.5C 216.833,406.333 217.167,407.167 217.5,408C 209.345,431.788 202.679,455.954 197.5,480.5C 182.675,483.501 170.175,479.168 160,467.5C 155.283,462.399 152.45,456.399 151.5,449.5C 152.566,435.327 158.566,423.827 169.5,415C 176.564,411.905 183.564,412.239 190.5,416C 192.393,418.917 192.893,422.084 192,425.5C 190.261,431.398 187.761,436.898 184.5,442C 176.705,440.804 173.871,443.97 176,451.5C 182.149,455.814 187.816,455.147 193,449.5C 201.989,438.209 204.989,425.542 202,411.5C 191.557,400.679 179.39,398.013 165.5,403.5 Z"/></g>
<g><path style="opacity:1" fill="#090505" d="M 270.5,482.5 C 263.519,492.881 254.186,495.715 242.5,491C 236.301,487.247 233.634,481.747 234.5,474.5C 238.53,462.479 246.863,457.646 259.5,460C 269.928,464.088 273.595,471.588 270.5,482.5 Z"/></g>
<g><path style="opacity:1" fill="#7f6552" d="M 511.5,589.5 C 504.76,587.314 497.76,585.148 490.5,583C 487.75,579.293 484.084,577.793 479.5,578.5C 479.5,577.5 479.5,576.5 479.5,575.5C 476.833,575.5 474.167,575.5 471.5,575.5C 460.117,567.414 452.117,556.747 447.5,543.5C 445.543,532.974 444.543,522.308 444.5,511.5C 445.5,511.5 446.5,511.5 447.5,511.5C 447.5,506.167 447.5,500.833 447.5,495.5C 450.833,495.5 454.167,495.5 457.5,495.5C 457.5,490.167 457.5,484.833 457.5,479.5C 456.167,479.5 454.833,479.5 453.5,479.5C 453.689,474.037 454.355,468.704 455.5,463.5C 457.288,463.785 458.955,463.452 460.5,462.5C 460.291,461.914 459.957,461.414 459.5,461C 460.579,460.044 461.745,459.211 463,458.5C 463.667,462.833 463.667,467.167 463,471.5C 460.797,473.669 459.964,476.335 460.5,479.5C 461.5,479.5 462.5,479.5 463.5,479.5C 463.335,482.518 463.502,485.518 464,488.5C 466.105,485.893 466.938,482.893 466.5,479.5C 469.167,479.5 471.833,479.5 474.5,479.5C 474.119,484.275 473.119,488.942 471.5,493.5C 471.967,495.568 472.634,497.568 473.5,499.5C 473.296,503.363 472.963,507.363 472.5,511.5C 473.5,511.5 474.5,511.5 475.5,511.5C 476.504,516.864 476.17,522.198 474.5,527.5C 476.167,527.5 477.833,527.5 479.5,527.5C 479.351,528.552 479.517,529.552 480,530.5C 480.333,530.167 480.667,529.833 481,529.5C 484.605,534.194 488.772,538.36 493.5,542C 493.167,542.333 492.833,542.667 492.5,543C 494.641,542.914 496.974,543.081 499.5,543.5C 501.435,544.15 503.435,544.483 505.5,544.5C 504.391,545.29 503.058,545.79 501.5,546C 503.525,547.677 505.859,548.677 508.5,549C 517.895,549.886 527.228,549.553 536.5,548C 536.616,546.732 536.949,545.398 537.5,544C 539.5,543.667 541.5,543.333 543.5,543C 545.667,540.833 547.833,538.667 550,536.5C 551,533.5 552,530.5 553,527.5C 553.057,521.208 553.89,515.041 555.5,509C 555.013,504.352 553.347,500.185 550.5,496.5C 549.675,495.614 548.675,495.281 547.5,495.5C 545.616,495.288 544.283,494.288 543.5,492.5C 531.138,486.305 521.304,488.972 514,500.5C 513.044,504.572 513.544,508.405 515.5,512C 517.5,512.667 519.5,512.667 521.5,512C 523.535,509.02 525.202,505.853 526.5,502.5C 538.111,499.947 542.611,504.613 540,516.5C 538.844,520.123 537.844,523.789 537,527.5C 535.833,530 534,531.833 531.5,533C 521.107,535.703 511.107,534.703 501.5,530C 487.833,515.166 484.999,498.333 493,479.5C 504.511,460.168 521.344,453.002 543.5,458C 562.176,461.346 573.676,472.179 578,490.5C 582.946,512.268 580.946,533.268 572,553.5C 562.097,567.738 549.93,579.571 535.5,589C 527.531,590.797 519.531,590.963 511.5,589.5 Z"/></g>
<g><path style="opacity:1" fill="#645f5a" d="M 417.5,466.5 C 424.095,467.821 430.761,468.488 437.5,468.5C 437.737,469.791 437.404,470.791 436.5,471.5C 430.262,470.001 423.928,468.335 417.5,466.5 Z"/></g>
<g><path style="opacity:1" fill="#fdbaae" d="M 225.5,479.5 C 227.833,479.5 230.167,479.5 232.5,479.5C 232.883,483.319 233.883,486.986 235.5,490.5C 239.34,491.5 242.84,493.166 246,495.5C 252.446,495.324 258.946,495.157 265.5,495C 265.167,494.667 264.833,494.333 264.5,494C 266.101,490.893 268.435,488.727 271.5,487.5C 274.414,491.64 277.581,495.64 281,499.5C 283.219,512.864 281.052,525.364 274.5,537C 275.056,537.383 275.389,537.883 275.5,538.5C 273.254,537.545 270.921,536.878 268.5,536.5C 267.829,539.986 268.829,542.653 271.5,544.5C 267.781,549.728 263.448,554.561 258.5,559C 254.11,560.149 249.777,561.482 245.5,563C 237.173,563.5 228.84,563.666 220.5,563.5C 215.336,552.206 212.503,540.206 212,527.5C 211.333,516.833 211.333,506.167 212,495.5C 212.106,491.61 212.939,487.943 214.5,484.5C 217.071,480.632 220.737,478.965 225.5,479.5 Z"/></g>
<g><path style="opacity:1" fill="#080605" d="M 402.5,522.5 C 399.399,525.285 396.065,527.618 392.5,529.5C 387.537,530.254 382.537,530.587 377.5,530.5C 375.745,529.096 373.745,528.096 371.5,527.5C 369.163,524.319 366.996,520.986 365,517.5C 363.566,513.594 363.233,509.594 364,505.5C 370.318,494.258 379.818,489.925 392.5,492.5C 396.477,495.309 400.31,498.309 404,501.5C 407.383,508.769 406.883,515.769 402.5,522.5 Z"/></g>
<g><path style="opacity:1" fill="#e4b3ab" d="M 234.5,474.5 C 233.634,481.747 236.301,487.247 242.5,491C 254.186,495.715 263.519,492.881 270.5,482.5C 271.038,484.117 271.371,485.784 271.5,487.5C 268.435,488.727 266.101,490.893 264.5,494C 264.833,494.333 265.167,494.667 265.5,495C 258.946,495.157 252.446,495.324 246,495.5C 242.84,493.166 239.34,491.5 235.5,490.5C 233.883,486.986 232.883,483.319 232.5,479.5C 230.167,479.5 227.833,479.5 225.5,479.5C 228.659,478.191 231.659,476.524 234.5,474.5 Z"/></g>
<g><path style="opacity:1" fill="#0f0d0b" d="M 300.5,510.5 C 306.001,509.64 310.834,510.973 315,514.5C 316.162,525.997 310.995,530.497 299.5,528C 294.064,521.949 294.397,516.115 300.5,510.5 Z"/></g>
<g><path style="opacity:1" fill="#40342e" d="M 196.5,498.5 C 196.5,505.167 196.5,511.833 196.5,518.5C 195.5,518.5 194.5,518.5 193.5,518.5C 195.087,511.928 196.087,505.261 196.5,498.5 Z"/></g>
<g><path style="opacity:1" fill="#746255" d="M 547.5,495.5 C 548.675,495.281 549.675,495.614 550.5,496.5C 553.347,500.185 555.013,504.352 555.5,509C 553.89,515.041 553.057,521.208 553,527.5C 552,530.5 551,533.5 550,536.5C 547.833,538.667 545.667,540.833 543.5,543C 541.5,543.333 539.5,543.667 537.5,544C 536.949,545.398 536.616,546.732 536.5,548C 527.228,549.553 517.895,549.886 508.5,549C 505.859,548.677 503.525,547.677 501.5,546C 503.058,545.79 504.391,545.29 505.5,544.5C 537.355,551.763 552.855,539.096 552,506.5C 550.971,502.564 549.471,498.898 547.5,495.5 Z"/></g>
<g><path style="opacity:1" fill="#8f8f8d" d="M 191.5,533.5 C 191.082,534.222 190.416,534.722 189.5,535C 183.984,535.817 178.65,535.651 173.5,534.5C 179.545,534.697 185.545,534.363 191.5,533.5 Z"/></g>
<g><path style="opacity:1" fill="#fdbaaf" d="M 402.5,522.5 C 402.577,523.75 403.244,524.583 404.5,525C 414.391,527.06 422.891,531.56 430,538.5C 430.483,537.552 430.649,536.552 430.5,535.5C 433.128,542.364 435.794,549.364 438.5,556.5C 438.572,559.193 438.905,561.86 439.5,564.5C 438.043,567.991 437.043,571.658 436.5,575.5C 433.5,575.833 431.833,577.5 431.5,580.5C 429.616,579.618 428.283,578.118 427.5,576C 428.793,575.51 430.127,575.343 431.5,575.5C 431.153,569.943 431.82,564.61 433.5,559.5C 430.167,559.5 426.833,559.5 423.5,559.5C 423.666,554.156 423.499,548.823 423,543.5C 421.195,540.961 418.695,539.961 415.5,540.5C 415.5,552.167 415.5,563.833 415.5,575.5C 410.167,575.5 404.833,575.5 399.5,575.5C 399.17,582.532 399.503,589.532 400.5,596.5C 401.5,596.833 402.167,597.5 402.5,598.5C 401.538,601.941 400.372,605.274 399,608.5C 394.252,607.365 389.419,607.198 384.5,608C 385.905,609.977 386.905,612.143 387.5,614.5C 387.272,616.397 386.272,617.73 384.5,618.5C 383.511,614.893 383.177,611.226 383.5,607.5C 378.167,607.5 372.833,607.5 367.5,607.5C 367.5,602.167 367.5,596.833 367.5,591.5C 362.167,591.5 356.833,591.5 351.5,591.5C 351.5,580.833 351.5,570.167 351.5,559.5C 356.833,559.5 362.167,559.5 367.5,559.5C 367.5,554.167 367.5,548.833 367.5,543.5C 370.518,543.665 373.518,543.498 376.5,543C 381.167,539.667 385.833,539.667 390.5,543C 393.482,543.498 396.482,543.665 399.5,543.5C 399.5,540.833 399.5,538.167 399.5,535.5C 397.143,535.663 394.81,535.497 392.5,535C 392.833,534.667 393.167,534.333 393.5,534C 390.151,532.81 386.818,532.643 383.5,533.5C 379.098,533.218 375.098,531.885 371.5,529.5C 370.28,530.711 369.113,530.711 368,529.5C 367.383,530.449 367.549,531.282 368.5,532C 363.798,533.031 360.632,535.864 359,540.5C 356.979,539.764 355.479,540.597 354.5,543C 353.552,543.483 352.552,543.649 351.5,543.5C 351.343,542.127 351.51,540.793 352,539.5C 355.939,536.937 359.106,533.604 361.5,529.5C 364.535,527.699 367.869,527.032 371.5,527.5C 373.745,528.096 375.745,529.096 377.5,530.5C 379.304,531.162 381.304,531.495 383.5,531.5C 386.814,531.657 389.814,530.991 392.5,529.5C 396.065,527.618 399.399,525.285 402.5,522.5 Z"/></g>
<g><path style="opacity:1" fill="#a17f7a" d="M 392.5,529.5 C 389.814,530.991 386.814,531.657 383.5,531.5C 381.304,531.495 379.304,531.162 377.5,530.5C 382.537,530.587 387.537,530.254 392.5,529.5 Z"/></g>
<g><path style="opacity:1" fill="#e7bab3" d="M 211.5,479.5 C 211.215,481.288 211.548,482.955 212.5,484.5C 213.429,483.45 214.095,483.45 214.5,484.5C 212.939,487.943 212.106,491.61 212,495.5C 211.333,506.167 211.333,516.833 212,527.5C 212.503,540.206 215.336,552.206 220.5,563.5C 218.468,564.048 217.468,565.381 217.5,567.5C 216.251,564.913 215.251,562.246 214.5,559.5C 214.246,553.905 213.246,548.572 211.5,543.5C 208.859,522.021 208.859,500.688 211.5,479.5 Z"/></g>
<g><path style="opacity:1" fill="#13100e" d="M 341.5,552.5 C 341.69,554.959 340.69,556.626 338.5,557.5C 329.36,556.508 320.694,554.008 312.5,550C 307.271,547.318 302.771,543.818 299,539.5C 290.453,544.764 281.287,546.43 271.5,544.5C 268.829,542.653 267.829,539.986 268.5,536.5C 270.921,536.878 273.254,537.545 275.5,538.5C 283.265,539.975 290.265,538.141 296.5,533C 298.5,532.333 300.5,532.333 302.5,533C 305.5,536 308.5,539 311.5,542C 321.492,546.05 331.492,549.55 341.5,552.5 Z"/></g>
<g><path style="opacity:1" fill="#311a19" d="M 211.5,543.5 C 213.246,548.572 214.246,553.905 214.5,559.5C 213.069,559.119 212.236,558.119 212,556.5C 211.501,552.179 211.334,547.846 211.5,543.5 Z"/></g>
<g><path style="opacity:1" fill="#fdecdc" d="M 338.5,557.5 C 339.675,557.281 340.675,557.614 341.5,558.5C 336.069,576.934 339.402,593.267 351.5,607.5C 352.072,609.255 352.906,610.922 354,612.5C 358.393,616.403 362.893,620.069 367.5,623.5C 368.174,625.024 369.174,626.358 370.5,627.5C 375.009,628.761 379.343,629.428 383.5,629.5C 369.426,640.87 353.426,647.87 335.5,650.5C 325.468,650.729 315.468,650.396 305.5,649.5C 279.699,644.691 257.866,633.024 240,614.5C 229.675,600.296 222.175,584.629 217.5,567.5C 217.468,565.381 218.468,564.048 220.5,563.5C 228.84,563.666 237.173,563.5 245.5,563C 249.777,561.482 254.11,560.149 258.5,559C 263.448,554.561 267.781,549.728 271.5,544.5C 281.287,546.43 290.453,544.764 299,539.5C 302.771,543.818 307.271,547.318 312.5,550C 320.694,554.008 329.36,556.508 338.5,557.5 Z"/></g>
<g><path style="opacity:1" fill="#fafafa" d="M 201.5,568.5 C 203.284,569.574 204.451,571.24 205,573.5C 212.019,600.404 226.186,622.57 247.5,640C 269.371,654.347 293.371,662.847 319.5,665.5C 328.57,665.011 337.57,664.011 346.5,662.5C 346.435,669.812 347.935,676.812 351,683.5C 355.088,691.347 359.921,698.681 365.5,705.5C 362.779,707.527 359.779,709.027 356.5,710C 345.272,713.36 333.939,716.527 322.5,719.5C 318.046,718.571 313.713,717.238 309.5,715.5C 304.687,709.519 299.687,703.686 294.5,698C 286.646,693.825 278.313,690.825 269.5,689C 252.414,688.584 236.414,684.251 221.5,676C 216.287,672.454 212.12,667.954 209,662.5C 204.885,654.392 201.218,646.058 198,637.5C 191.376,629.249 186.042,620.249 182,610.5C 182.263,593.639 188.763,579.639 201.5,568.5 Z"/></g>
<g><path style="opacity:1" fill="#f8c2b5" d="M 345.5,549.5 C 342.722,564.235 343.222,578.902 347,593.5C 350.602,597.444 352.102,602.11 351.5,607.5C 339.402,593.267 336.069,576.934 341.5,558.5C 340.675,557.614 339.675,557.281 338.5,557.5C 340.69,556.626 341.69,554.959 341.5,552.5C 343.03,551.789 344.363,550.789 345.5,549.5 Z"/></g>
<g><path style="opacity:1" fill="#6e5e55" d="M 471.5,575.5 C 474.167,575.5 476.833,575.5 479.5,575.5C 479.5,576.5 479.5,577.5 479.5,578.5C 484.084,577.793 487.75,579.293 490.5,583C 497.76,585.148 504.76,587.314 511.5,589.5C 500.726,589.224 490.392,586.89 480.5,582.5C 477.177,580.502 474.177,578.169 471.5,575.5 Z"/></g>
<g><path style="opacity:1" fill="#fcbaab" d="M 431.5,580.5 C 426.815,582.696 423.648,586.363 422,591.5C 418.782,595.894 414.615,598.894 409.5,600.5C 408.947,602.384 408.947,604.384 409.5,606.5C 404.131,612.87 398.131,618.537 391.5,623.5C 387.842,624.483 384.175,625.483 380.5,626.5C 375.978,625.951 371.645,624.951 367.5,623.5C 362.893,620.069 358.393,616.403 354,612.5C 352.906,610.922 352.072,609.255 351.5,607.5C 352.102,602.11 350.602,597.444 347,593.5C 343.222,578.902 342.722,564.235 345.5,549.5C 347.043,548.264 348.043,546.598 348.5,544.5C 349.325,543.614 350.325,543.281 351.5,543.5C 352.552,543.649 353.552,543.483 354.5,543C 355.479,540.597 356.979,539.764 359,540.5C 360.632,535.864 363.798,533.031 368.5,532C 367.549,531.282 367.383,530.449 368,529.5C 369.113,530.711 370.28,530.711 371.5,529.5C 375.098,531.885 379.098,533.218 383.5,533.5C 386.818,532.643 390.151,532.81 393.5,534C 393.167,534.333 392.833,534.667 392.5,535C 394.81,535.497 397.143,535.663 399.5,535.5C 399.5,538.167 399.5,540.833 399.5,543.5C 396.482,543.665 393.482,543.498 390.5,543C 385.833,539.667 381.167,539.667 376.5,543C 373.518,543.498 370.518,543.665 367.5,543.5C 367.5,548.833 367.5,554.167 367.5,559.5C 362.167,559.5 356.833,559.5 351.5,559.5C 351.5,570.167 351.5,580.833 351.5,591.5C 356.833,591.5 362.167,591.5 367.5,591.5C 367.5,596.833 367.5,602.167 367.5,607.5C 372.833,607.5 378.167,607.5 383.5,607.5C 383.177,611.226 383.511,614.893 384.5,618.5C 386.272,617.73 387.272,616.397 387.5,614.5C 386.905,612.143 385.905,609.977 384.5,608C 389.419,607.198 394.252,607.365 399,608.5C 400.372,605.274 401.538,601.941 402.5,598.5C 402.167,597.5 401.5,596.833 400.5,596.5C 399.503,589.532 399.17,582.532 399.5,575.5C 404.833,575.5 410.167,575.5 415.5,575.5C 415.5,563.833 415.5,552.167 415.5,540.5C 418.695,539.961 421.195,540.961 423,543.5C 423.499,548.823 423.666,554.156 423.5,559.5C 426.833,559.5 430.167,559.5 433.5,559.5C 431.82,564.61 431.153,569.943 431.5,575.5C 430.127,575.343 428.793,575.51 427.5,576C 428.283,578.118 429.616,579.618 431.5,580.5 Z"/></g>
<g><path style="opacity:1" fill="#e9bcb3" d="M 438.5,556.5 C 440.585,559.545 442.585,562.712 444.5,566C 434.455,580.88 422.788,594.38 409.5,606.5C 408.947,604.384 408.947,602.384 409.5,600.5C 414.615,598.894 418.782,595.894 422,591.5C 423.648,586.363 426.815,582.696 431.5,580.5C 431.833,577.5 433.5,575.833 436.5,575.5C 437.043,571.658 438.043,567.991 439.5,564.5C 438.905,561.86 438.572,559.193 438.5,556.5 Z"/></g>
<g><path style="opacity:1" fill="#7d6553" d="M 170.5,619.5 C 175.319,626.862 180.486,634.195 186,641.5C 188.017,645.393 189.517,649.393 190.5,653.5C 174.237,655.597 157.904,656.93 141.5,657.5C 134.736,657.357 128.903,655.024 124,650.5C 123.667,648.953 124.167,647.62 125.5,646.5C 139.832,636.176 154.832,627.176 170.5,619.5 Z"/></g>
<g><path style="opacity:1" fill="#f4cec1" d="M 367.5,623.5 C 371.645,624.951 375.978,625.951 380.5,626.5C 384.175,625.483 387.842,624.483 391.5,623.5C 389.14,625.853 386.473,627.853 383.5,629.5C 379.343,629.428 375.009,628.761 370.5,627.5C 369.174,626.358 368.174,625.024 367.5,623.5 Z"/></g>
<g><path style="opacity:1" fill="#303030" d="M 868.5,609.5 C 867.102,621.271 866.102,632.938 865.5,644.5C 865.334,635.494 865.5,626.494 866,617.5C 866.279,614.543 867.113,611.877 868.5,609.5 Z"/></g>
<g><path style="opacity:1" fill="#bab3ac" d="M 305.5,649.5 C 315.468,650.396 325.468,650.729 335.5,650.5C 326.676,651.657 317.676,651.824 308.5,651C 307.263,650.768 306.263,650.268 305.5,649.5 Z"/></g>
<g><path style="opacity:1" fill="#7f6651" d="M 893.5,659.5 C 894.5,659.833 895.167,660.5 895.5,661.5C 895.5,662.833 895.5,664.167 895.5,665.5C 899.833,665.167 901.833,667.167 901.5,671.5C 899.5,671.5 897.5,671.5 895.5,671.5C 895.5,672.5 895.5,673.5 895.5,674.5C 900.844,674.334 906.177,674.501 911.5,675C 913.167,676 914.5,677.333 915.5,679C 904.018,681.028 892.518,680.528 881,677.5C 878.863,676.422 877.03,674.922 875.5,673C 878.426,667.538 879.759,661.705 879.5,655.5C 881.527,655.338 883.527,655.505 885.5,656C 887.067,658.568 889.233,660.402 892,661.5C 893.03,661.164 893.53,660.497 893.5,659.5 Z"/></g>
<g><path style="opacity:1" fill="#494747" d="M 127.5,667.5 C 136.357,669.304 145.357,669.971 154.5,669.5C 147.345,670.655 140.012,670.822 132.5,670C 130.509,669.626 128.842,668.793 127.5,667.5 Z"/></g>
<g><path style="opacity:1" fill="#736155" d="M 893.5,659.5 C 893.53,660.497 893.03,661.164 892,661.5C 889.233,660.402 887.067,658.568 885.5,656C 883.527,655.505 881.527,655.338 879.5,655.5C 879.759,661.705 878.426,667.538 875.5,673C 877.03,674.922 878.863,676.422 881,677.5C 892.518,680.528 904.018,681.028 915.5,679C 914.5,677.333 913.167,676 911.5,675C 906.177,674.501 900.844,674.334 895.5,674.5C 895.5,673.5 895.5,672.5 895.5,671.5C 897.5,671.5 899.5,671.5 901.5,671.5C 901.833,667.167 899.833,665.167 895.5,665.5C 895.5,664.167 895.5,662.833 895.5,661.5C 903.41,665.718 910.577,671.052 917,677.5C 917.49,678.793 917.657,680.127 917.5,681.5C 901.966,683.426 886.632,682.426 871.5,678.5C 872.621,672.303 874.454,666.303 877,660.5C 877.498,657.183 877.665,653.85 877.5,650.5C 883.087,652.962 888.42,655.962 893.5,659.5 Z"/></g>
<g><path style="opacity:1" fill="#3b3b3b" d="M 258.5,699.5 C 264.753,698.819 270.42,700.153 275.5,703.5C 269.726,702.12 264.059,700.787 258.5,699.5 Z"/></g>
<g><path style="opacity:1" fill="#7a6555" d="M 863.5,709.5 C 858.508,708.602 854.508,710.102 851.5,714C 850.207,714.49 848.873,714.657 847.5,714.5C 847.5,712.833 847.5,711.167 847.5,709.5C 851.446,709.512 853.113,707.512 852.5,703.5C 850.833,703.5 849.167,703.5 847.5,703.5C 846.873,707.946 844.206,710.113 839.5,710C 835.719,713.346 836.219,716.18 841,718.5C 841.49,719.793 841.657,721.127 841.5,722.5C 838.637,722.929 835.971,723.929 833.5,725.5C 840.577,726.736 847.41,728.736 854,731.5C 855.82,732.979 857.653,734.313 859.5,735.5C 845.327,732.587 831.327,729.254 817.5,725.5C 826.48,714.859 836.813,705.859 848.5,698.5C 853.745,701.944 858.745,705.61 863.5,709.5 Z"/></g>
<g><path style="opacity:1" fill="#7e6552" d="M 863.5,709.5 C 873.326,715.516 882.159,722.849 890,731.5C 890.483,732.448 890.649,733.448 890.5,734.5C 880.193,736.659 869.86,736.992 859.5,735.5C 857.653,734.313 855.82,732.979 854,731.5C 847.41,728.736 840.577,726.736 833.5,725.5C 835.971,723.929 838.637,722.929 841.5,722.5C 841.657,721.127 841.49,719.793 841,718.5C 836.219,716.18 835.719,713.346 839.5,710C 844.206,710.113 846.873,707.946 847.5,703.5C 849.167,703.5 850.833,703.5 852.5,703.5C 853.113,707.512 851.446,709.512 847.5,709.5C 847.5,711.167 847.5,712.833 847.5,714.5C 848.873,714.657 850.207,714.49 851.5,714C 854.508,710.102 858.508,708.602 863.5,709.5 Z"/></g>
<g><path style="opacity:1" fill="#a6a6a6" d="M 441.5,720.5 C 444.152,720.41 446.485,721.076 448.5,722.5C 445.848,722.59 443.515,721.924 441.5,720.5 Z"/></g>
<g><path style="opacity:1" fill="#7d6553" d="M 375.5,715.5 C 384.211,719.274 393.211,722.608 402.5,725.5C 399.182,729.318 395.682,732.985 392,736.5C 388.969,741.187 385.969,745.854 383,750.5C 372.557,762.397 361.891,774.064 351,785.5C 348.377,789.903 344.543,791.569 339.5,790.5C 342.274,765.176 350.608,741.843 364.5,720.5C 367.517,719.062 370.684,718.062 374,717.5C 375.03,717.164 375.53,716.497 375.5,715.5 Z"/></g>
<g><path style="opacity:1" fill="#4a4748" d="M 857.5,747.5 C 865.816,748.185 874.149,748.518 882.5,748.5C 879.518,749.165 876.352,749.498 873,749.5C 867.589,749.621 862.423,748.954 857.5,747.5 Z"/></g>
</svg>
